Coordinates
nRows=224
nColumns=2
inDegrees=yes
endheader
time	ankle_angle_r	
2.79435	 -4.943857	
2.82762	 -4.945211	
2.86089	 -4.952886	
2.89415	 -4.962211	
2.92742	 -4.964695	
2.96069	 -4.961662	
2.99395	 -4.959865	
3.02722	 -4.960743	
3.06048	 -4.961461	
3.09375	 -4.958178	
3.12702	 -4.950260	
3.16028	 -4.943683	
3.19355	 -4.944305	
3.22681	 -4.953435	
3.26008	 -4.968223	
3.29335	 -4.979864	
3.32661	 -4.980720	
3.35988	 -4.973165	
3.39315	 -4.965114	
3.42641	 -4.962018	
3.45968	 -4.963002	
3.49294	 -4.963254	
3.52621	 -4.961942	
3.55948	 -4.961516	
3.59274	 -4.962184	
3.62601	 -4.965461	
3.65927	 -4.975083	
3.69254	 -4.989917	
3.72581	 -5.004167	
3.75907	 -5.014464	
3.79234	 -5.021313	
3.8256	 -5.026571	
3.85887	 -5.030919	
3.89214	 -5.032768	
3.9254	 -5.032707	
3.95867	 -5.034054	
3.99194	 -5.036515	
4.0252	 -5.036712	
4.05847	 -5.033221	
4.09173	 -5.028059	
4.125	 -5.025391	
4.15827	 -5.026966	
4.19153	 -5.030887	
4.2248	 -5.036151	
4.25806	 -5.041759	
4.29133	 -5.044527	
4.3246	 -5.043935	
4.35786	 -5.042232	
4.39113	 -5.040676	
4.4244	 -5.041160	
4.45766	 -5.044097	
4.49093	 -5.045785	
4.52419	 -5.044090	
4.55746	 -5.039472	
4.59073	 -5.031325	
4.62399	 -5.022328	
4.65726	 -5.018552	
4.69052	 -5.020261	
4.72379	 -5.022572	
4.75706	 -5.022550	
4.79032	 -5.021227	
4.82359	 -5.022631	
4.85685	 -5.026885	
4.89012	 -5.027591	
4.92339	 -5.022611	
4.95665	 -5.017769	
4.98992	 -5.017332	
5.02319	 -5.019462	
5.05645	 -5.017886	
5.08972	 -5.008181	
5.12298	 -4.995459	
5.15625	 -4.986164	
5.18952	 -4.980481	
5.22278	 -4.980445	
5.25605	 -4.986342	
5.28931	 -4.990842	
5.32258	 -4.990058	
5.35585	 -4.986499	
5.38911	 -4.984243	
5.42238	 -4.988844	
5.45565	 -5.000861	
5.48891	 -5.013768	
5.52218	 -5.022149	
5.55544	 -5.023073	
5.58871	 -5.018391	
5.62198	 -5.018115	
5.65524	 -5.026415	
5.68851	 -5.033465	
5.72177	 -5.031825	
5.75504	 -5.024870	
5.78831	 -5.017807	
5.82157	 -5.013317	
5.85484	 -5.011450	
5.8881	 -5.009597	
5.92137	 -5.006047	
5.95464	 -5.001395	
5.9879	 -4.995990	
6.02117	 -4.989782	
6.05444	 -4.983326	
6.0877	 -4.977731	
6.12097	 -4.976600	
6.15423	 -4.981977	
6.1875	 -4.987926	
6.22077	 -4.989142	
6.25403	 -4.988162	
6.2873	 -4.988941	
6.32056	 -4.993338	
6.35383	 -4.999568	
6.3871	 -5.003736	
6.42036	 -5.007942	
6.45363	 -5.015762	
6.4869	 -5.022269	
6.52016	 -5.021813	
6.55343	 -5.015931	
6.58669	 -5.006768	
6.61996	 -4.993771	
6.65323	 -4.979075	
6.68649	 -4.970126	
6.71976	 -4.973594	
6.75302	 -4.985035	
6.78629	 -4.991633	
6.81956	 -4.989164	
6.85282	 -4.984289	
6.88609	 -4.981362	
6.91935	 -4.980901	
6.95262	 -4.983775	
6.98589	 -4.988244	
7.01915	 -4.989981	
7.05242	 -4.986063	
7.08569	 -4.977623	
7.11895	 -4.969200	
7.15222	 -4.963457	
7.18548	 -4.962072	
7.21875	 -4.967857	
7.25202	 -4.977524	
7.28528	 -4.984625	
7.31855	 -4.989018	
7.35181	 -4.992414	
7.38508	 -4.995048	
7.41835	 -4.997266	
7.45161	 -4.995106	
7.48488	 -4.984265	
7.51815	 -4.969323	
7.55141	 -4.956949	
7.58468	 -4.948261	
7.61794	 -4.944383	
7.65121	 -4.945832	
7.68448	 -4.947999	
7.71774	 -4.947638	
7.75101	 -4.946285	
7.78427	 -4.944699	
7.81754	 -4.940283	
7.85081	 -4.931672	
7.88407	 -4.925431	
7.91734	 -4.930757	
7.9506	 -4.947294	
7.98387	 -4.966787	
8.01714	 -4.981114	
8.0504	 -4.985405	
8.08367	 -4.982794	
8.11694	 -4.983331	
8.1502	 -4.990765	
8.18347	 -4.999208	
8.21673	 -5.004097	
8.25	 -5.005127	
8.28327	 -5.003738	
8.31653	 -5.002580	
8.3498	 -5.001997	
8.38306	 -5.000928	
8.41633	 -5.000175	
8.4496	 -5.000124	
8.48286	 -5.000896	
8.51613	 -5.003462	
8.5494	 -5.006367	
8.58266	 -5.008149	
8.61593	 -5.010292	
8.64919	 -5.011563	
8.68246	 -5.009697	
8.71573	 -5.007684	
8.74899	 -5.008480	
8.78226	 -5.011132	
8.81552	 -5.013629	
8.84879	 -5.012741	
8.88206	 -5.007684	
8.91532	 -5.003697	
8.94859	 -5.003730	
8.98185	 -5.005213	
9.01512	 -5.006814	
9.04839	 -5.007182	
9.08165	 -5.003543	
9.11492	 -4.995610	
9.14819	 -4.983741	
9.18145	 -4.970387	
9.21472	 -4.963010	
9.24798	 -4.963368	
9.28125	 -4.962413	
9.31452	 -4.954172	
9.34778	 -4.943646	
9.38105	 -4.940041	
9.41431	 -4.947895	
9.44758	 -4.960859	
9.48085	 -4.967969	
9.51411	 -4.967220	
9.54738	 -4.962494	
9.58065	 -4.955680	
9.61391	 -4.949789	
9.64718	 -4.946766	
9.68044	 -4.944636	
9.71371	 -4.943190	
9.74698	 -4.943896	
9.78024	 -4.947233	
9.81351	 -4.953262	
9.84677	 -4.958405	
9.88004	 -4.958029	
9.91331	 -4.954237	
9.94657	 -4.952427	
9.97984	 -4.953631	
10.0131	 -4.954631	
10.0464	 -4.953375	
10.0796	 -4.952793	
10.1129	 -4.955421	
10.1462	 -4.958329	
10.1794	 -4.960638	
10.2127	 -4.965018	
